<svg width="40" height="40" viewBox="0 0 40 40" fill="none" xmlns="http://www.w3.org/2000/svg">
<path d="M20.7998 8C24.7199 8 26.6804 7.99987 28.1777 8.7627C29.4949 9.43381 30.5662 10.5051 31.2373 11.8223C32.0001 13.3196 32 15.2801 32 19.2002V20.7998C32 24.7199 32.0001 26.6804 31.2373 28.1777C30.5662 29.4949 29.4949 30.5662 28.1777 31.2373C26.6804 32.0001 24.7199 32 20.7998 32H19.2002C15.2801 32 13.3196 32.0001 11.8223 31.2373C10.5051 30.5662 9.43381 29.4949 8.7627 28.1777C7.99987 26.6804 8 24.7199 8 20.7998V19.2002C8 15.2801 7.99987 13.3196 8.7627 11.8223C9.43381 10.5051 10.5051 9.43381 11.8223 8.7627C13.3196 7.99987 15.2801 8 19.2002 8H20.7998ZM27.5342 19.5303C26.9482 20.0659 26.242 20.4533 25.4756 20.6602L21.3818 28.0303C21.3062 28.1746 21.2893 28.3428 21.3359 28.499C21.3827 28.6553 21.4893 28.787 21.6318 28.8662C21.7745 28.9454 21.9422 28.9658 22.0996 28.9229C22.257 28.8799 22.392 28.7774 22.4746 28.6367L27.5342 19.5303ZM13.7246 25.3916C13.6143 25.5101 13.5548 25.6673 13.5576 25.8291C13.5606 25.9909 13.6258 26.1453 13.7402 26.2598C13.8547 26.3742 14.0091 26.4394 14.1709 26.4424C14.3327 26.4452 14.4899 26.3857 14.6084 26.2754L21.0996 19.7832C20.7699 19.5267 20.4733 19.2301 20.2168 18.9004L13.7246 25.3916ZM21.1006 19.7832C21.7122 20.258 22.4264 20.5842 23.1855 20.7363C23.9445 20.8884 24.7284 20.8625 25.4756 20.6602L26.1836 19.3867C26.0445 19.3134 25.8858 19.227 25.7109 19.1221C25.1251 18.7704 24.3521 18.2258 23.4746 17.4092L21.1006 19.7832ZM19.3398 14.5254C19.1373 15.2725 19.1119 16.0564 19.2637 16.8154C19.4155 17.5746 19.7414 18.2886 20.2158 18.9004L22.5908 16.5254C21.7742 15.6479 21.2297 14.8749 20.8789 14.2891C20.774 14.1141 20.6858 13.9555 20.6133 13.8164L19.3398 14.5254ZM24.5352 10.8477C23.3416 10.7591 22.1559 11.1012 21.1934 11.8125L21.2568 12.0293L21.4932 12.7412L21.4961 12.7471L21.5098 12.7842C21.5239 12.82 21.5472 12.8786 21.583 12.9561C21.653 13.1119 21.7711 13.3474 21.9502 13.6465C22.3102 14.2448 22.9199 15.1026 23.9082 16.0918C24.8974 17.0801 25.7552 17.6898 26.3535 18.0498C26.6535 18.229 26.8891 18.347 27.0449 18.417C27.1132 18.4483 27.1827 18.4771 27.2529 18.5039L27.2578 18.5059L27.9707 18.7432L28.1924 18.7988C28.9019 17.835 29.2421 16.6484 29.1514 15.4551C29.0606 14.2618 28.5452 13.1404 27.6982 12.2949C26.8512 11.4494 25.7287 10.9362 24.5352 10.8477ZM11.3633 17.5254C11.2226 17.608 11.1201 17.743 11.0771 17.9004C11.0342 18.0578 11.0546 18.2255 11.1338 18.3682C11.213 18.5107 11.3447 18.6173 11.501 18.6641C11.6572 18.7107 11.8254 18.6938 11.9697 18.6182L19.3398 14.5254C19.5468 13.759 19.9342 13.0528 20.4697 12.4668L11.3633 17.5254Z" fill="#fff"/>
</svg>
