<svg width="20" height="20" viewBox="0 0 20 20" fill="none" xmlns="http://www.w3.org/2000/svg">
<path fill-rule="evenodd" clip-rule="evenodd" d="M17.9708 8.74334L18.1925 8.79918C18.9021 7.83531 19.2424 6.64893 19.1517 5.4555C19.061 4.26206 18.5453 3.14074 17.6982 2.29518C16.8511 1.44961 15.7289 0.935901 14.5353 0.847335C13.3417 0.758769 12.1559 1.10123 11.1933 1.81251L11.2567 2.02918L11.4933 2.74084L11.4958 2.74668L11.51 2.78418C11.5242 2.82001 11.5475 2.87834 11.5833 2.95584C11.6533 3.11168 11.7708 3.34751 11.95 3.64668C12.31 4.24501 12.92 5.10251 13.9083 6.09168C14.8975 7.08001 15.755 7.69001 16.3533 8.05001C16.6533 8.22918 16.8892 8.34668 17.045 8.41668C17.1135 8.4481 17.183 8.47728 17.2533 8.50418L17.2575 8.50584L17.9708 8.74334ZM11.3817 18.03L15.4758 10.66C16.2423 10.4531 16.9481 10.0656 17.5342 9.53001L12.4742 18.6367C12.3916 18.7774 12.2572 18.8802 12.0998 18.9232C11.9424 18.9661 11.7744 18.9459 11.6318 18.8666C11.4891 18.7874 11.3831 18.6556 11.3364 18.4992C11.2897 18.3429 11.3059 18.1745 11.3817 18.03ZM11.1008 9.78334L13.475 7.40918C14.3525 8.22584 15.125 8.77001 15.7108 9.12168C15.8858 9.22668 16.0442 9.31334 16.1833 9.38668L15.4758 10.66C14.7285 10.8625 13.9444 10.8887 13.1852 10.7366C12.426 10.5844 11.7125 10.2581 11.1008 9.78334ZM10.2167 8.90001C10.4734 9.22994 10.7701 9.52666 11.1 9.78334L4.60834 16.275C4.48986 16.3854 4.33315 16.4455 4.17124 16.4427C4.00932 16.4398 3.85483 16.3742 3.74032 16.2597C3.62581 16.1452 3.56022 15.9907 3.55736 15.8288C3.5545 15.6669 3.6146 15.5102 3.725 15.3917L10.2167 8.90001ZM9.34 4.52501L10.6133 3.81668C10.6858 3.95584 10.7742 4.11418 10.8792 4.28918C11.23 4.87501 11.7742 5.64751 12.5908 6.52501L10.2158 8.90001C9.74139 8.28821 9.41542 7.57464 9.26358 6.81546C9.11175 6.05629 9.13736 5.27223 9.34 4.52501ZM9.34 4.52501C9.54695 3.75853 9.93442 3.05274 10.47 2.46668L1.36334 7.52584C1.22263 7.60845 1.11981 7.74281 1.07684 7.90022C1.03387 8.05762 1.05416 8.22559 1.13337 8.36823C1.21258 8.51088 1.34444 8.61689 1.50077 8.66363C1.65709 8.71036 1.8255 8.69411 1.97 8.61834L9.34 4.52501Z" fill="black"/>
</svg>
